<?xml version="1.0" encoding="UTF-8"?><svg xmlns="http://www.w3.org/2000/svg" xmlns:xlink="http://www.w3.org/1999/xlink" height="60.0" preserveAspectRatio="xMidYMid meet" version="1.0" viewBox="2.0 2.0 59.9 60.0" width="59.9" zoomAndPan="magnify"><g id="change1_1"><path d="M42,2A19.928,19.928,0,0,0,23.29,15H7a5,5,0,0,0-5,5V58a4,4,0,0,0,4,4H37a1,1,0,0,0,1-1V41.6a20.555,20.555,0,0,0,4,.4A20,20,0,0,0,42,2ZM59.95,21H49.99a48.308,48.308,0,0,0-.91-8.49,32.716,32.716,0,0,0,6.97-1.73A17.856,17.856,0,0,1,59.95,21ZM54.61,9.17a31.888,31.888,0,0,1-5.99,1.38A19.019,19.019,0,0,0,46,4.46,18.059,18.059,0,0,1,54.61,9.17ZM42,4c1.66,0,3.43,2.54,4.61,6.77a50.815,50.815,0,0,1-9.23,0C38.62,6.31,40.46,4,42,4Zm-3.92.44a18.451,18.451,0,0,0-2.7,6.11,32.115,32.115,0,0,1-6.01-1.38A17.922,17.922,0,0,1,38.08,4.44ZM27.94,10.77a32.693,32.693,0,0,0,6.97,1.74c-.16.79-.31,1.62-.43,2.49H25.42A18.351,18.351,0,0,1,27.94,10.77ZM36,60H6a2,2,0,0,1,0-4H27v3a1,1,0,0,0,.47.85A1.014,1.014,0,0,0,28,60a1.03,1.03,0,0,0,.45-.11L30,59.12l1.55.77A1.03,1.03,0,0,0,32,60a1.014,1.014,0,0,0,.53-.15A1,1,0,0,0,33,59V56h3Zm-7-2.62V56h2v1.38l-.55-.27a.975.975,0,0,0-.9,0ZM36,54H6a3.906,3.906,0,0,0-2,.56V20a3.009,3.009,0,0,1,3-3H36Zm1-39h-.5c.12-.8.26-1.55.41-2.27A49.953,49.953,0,0,0,42,13a49.953,49.953,0,0,0,5.09-.27A44.1,44.1,0,0,1,47.98,21H38V16A1,1,0,0,0,37,15Zm10.98,8a44.1,44.1,0,0,1-.89,8.27A51.017,51.017,0,0,0,38,31.18V23ZM38,39.54v-.05a.265.265,0,0,1,.05.06A.09.09,0,0,1,38,39.54ZM42,40c-1.38,0-2.87-1.83-4-4.9V33.18a50.468,50.468,0,0,1,8.61.05C45.43,37.46,43.66,40,42,40Zm4-.46a19.019,19.019,0,0,0,2.62-6.09,31.888,31.888,0,0,1,5.99,1.38A18.059,18.059,0,0,1,46,39.54Zm10.05-6.32a32.716,32.716,0,0,0-6.97-1.73A48.308,48.308,0,0,0,49.99,23h9.96A17.856,17.856,0,0,1,56.05,33.22Z" fill="inherit"/><path d="M7,52H33a1,1,0,0,0,1-1V20a1,1,0,0,0-1-1H7a1,1,0,0,0-1,1V51A1,1,0,0,0,7,52ZM8,21H32V50H8Z" fill="inherit"/><path d="M17,23H11a1,1,0,0,0-1,1V37h2V31h4v6h2V24A1,1,0,0,0,17,23Zm-5,6V25h4v4Z" fill="inherit"/><path d="M20 23H23V25H20z" fill="inherit"/><path d="M25 23H30V25H25z" fill="inherit"/><path d="M20 27H30V29H20z" fill="inherit"/><path d="M20 31H25V33H20z" fill="inherit"/><path d="M27 31H30V33H27z" fill="inherit"/><path d="M20 35H30V37H20z" fill="inherit"/><path d="M22 6H25V8H22z" fill="inherit"/><path d="M16 6H20V8H16z" fill="inherit"/><path d="M12,8h2V6H11a1,1,0,0,0-1,1v3h2Z" fill="inherit"/><path d="M10 11H12V13H10z" fill="inherit"/><path d="M41 49H44V51H41z" fill="inherit"/><path d="M46 49H50V51H46z" fill="inherit"/><path d="M54,49H52v2h3a1,1,0,0,0,1-1V47H54Z" fill="inherit"/><path d="M54 44H56V46H54z" fill="inherit"/></g></svg>