<?xml version="1.0" encoding="UTF-8"?><svg xmlns="http://www.w3.org/2000/svg" xmlns:xlink="http://www.w3.org/1999/xlink" height="231.8" preserveAspectRatio="xMidYMid meet" version="1.0" viewBox="97.7 95.7 229.8 231.8" width="229.8" zoomAndPan="magnify"><g><g id="change1_1"><path d="M 236.28125 325.519531 L 203.28125 325.519531 L 203.28125 268.535156 L 236.28125 268.535156 L 236.28125 325.519531" fill="#231f20"/></g><path d="M 2362.8125 996.804688 L 2032.8125 996.804688 L 2032.8125 1566.648438 L 2362.8125 1566.648438 Z M 2362.8125 996.804688" fill="none" stroke="#fff" stroke-linecap="round" stroke-linejoin="round" stroke-miterlimit="10" stroke-width="40" transform="matrix(.1 0 0 -.1 0 425.2)"/><g id="change1_2"><path d="M 167.28125 277.808594 C 160.113281 277.808594 154.28125 270.386719 154.28125 261.265625 C 154.28125 260.160156 155.175781 259.265625 156.28125 259.265625 L 266.78125 259.265625 C 267.886719 259.265625 268.78125 260.160156 268.78125 261.265625 C 268.78125 270.386719 262.949219 277.808594 255.78125 277.808594 L 167.28125 277.808594" fill="#231f20"/></g><g id="change2_1"><path d="M 266.785156 257.265625 L 156.28125 257.265625 C 154.070312 257.265625 152.28125 259.054688 152.28125 261.265625 C 152.28125 271.488281 159.007812 279.808594 167.28125 279.808594 L 255.78125 279.808594 C 264.007812 279.808594 270.710938 271.574219 270.78125 261.421875 C 270.78125 261.367188 270.78125 261.316406 270.78125 261.265625 C 270.78125 259.054688 268.992188 257.265625 266.785156 257.265625 Z M 266.78125 261.265625 C 266.78125 269.296875 261.855469 275.808594 255.78125 275.808594 L 167.28125 275.808594 C 161.203125 275.808594 156.28125 269.296875 156.28125 261.265625 L 266.78125 261.265625 M 266.78125 261.265625 L 266.785156 261.265625" fill="#fff"/></g><g id="change1_3"><path d="M 206.550781 264.488281 L 206.550781 170.726562 C 206.550781 141.492188 182.855469 117.796875 153.621094 117.796875 L 152.613281 117.796875 C 123.378906 117.796875 99.679688 141.492188 99.679688 170.726562 L 99.679688 264.488281 L 206.550781 264.488281" fill="#231f20"/></g><path d="M 2065.507812 1607.117188 L 2065.507812 2544.734375 C 2065.507812 2837.078125 1828.554688 3074.03125 1536.210938 3074.03125 L 1526.132812 3074.03125 C 1233.789062 3074.03125 996.796875 2837.078125 996.796875 2544.734375 L 996.796875 1607.117188 Z M 2065.507812 1607.117188" fill="none" stroke="#fff" stroke-linecap="round" stroke-linejoin="round" stroke-miterlimit="10" stroke-width="40" transform="matrix(.1 0 0 -.1 0 425.2)"/><g id="change1_4"><path d="M 272.589844 117.796875 L 271.578125 117.796875 C 242.347656 117.796875 153.621094 117.796875 153.621094 117.796875 C 182.855469 117.796875 206.550781 141.492188 206.550781 170.726562 L 206.550781 264.488281 L 325.519531 264.488281 L 325.519531 170.726562 C 325.519531 141.492188 301.820312 117.796875 272.589844 117.796875" fill="#231f20"/></g><path d="M 2725.898438 3074.03125 L 2715.78125 3074.03125 C 2423.476562 3074.03125 1536.210938 3074.03125 1536.210938 3074.03125 C 1828.554688 3074.03125 2065.507812 2837.078125 2065.507812 2544.734375 L 2065.507812 1607.117188 L 3255.195312 1607.117188 L 3255.195312 2544.734375 C 3255.195312 2837.078125 3018.203125 3074.03125 2725.898438 3074.03125 Z M 2725.898438 3074.03125" fill="none" stroke="#fff" stroke-linecap="round" stroke-linejoin="round" stroke-miterlimit="10" stroke-width="40" transform="matrix(.1 0 0 -.1 0 425.2)"/><g id="change1_5"><path d="M 206.550781 177.28125 L 125.589844 177.28125 L 125.589844 245.527344 L 206.550781 245.527344 L 206.550781 177.28125" fill="#231f20"/></g><path d="M 2065.507812 2479.1875 L 1255.898438 2479.1875 L 1255.898438 1796.726562 L 2065.507812 1796.726562 Z M 2065.507812 2479.1875" fill="none" stroke="#fff" stroke-linecap="round" stroke-linejoin="round" stroke-miterlimit="10" stroke-width="40" transform="matrix(.1 0 0 -.1 0 425.2)"/><g id="change1_6"><path d="M 206.550781 215.578125 L 185.933594 200.03125 L 125.589844 245.527344 L 206.550781 245.527344 L 206.550781 215.578125" fill="#231f20"/></g><path d="M 2065.507812 2096.21875 L 1859.335938 2251.6875 L 1255.898438 1796.726562 L 2065.507812 1796.726562 Z M 2065.507812 2096.21875" fill="none" stroke="#fff" stroke-linecap="round" stroke-linejoin="round" stroke-miterlimit="10" stroke-width="40" transform="matrix(.1 0 0 -.1 0 425.2)"/><g id="change1_7"><path d="M 206.550781 177.28125 L 125.589844 177.28125 L 185.933594 222.777344 L 206.550781 207.230469 L 206.550781 177.28125" fill="#231f20"/></g><path d="M 2065.507812 2479.1875 L 1255.898438 2479.1875 L 1859.335938 2024.226562 L 2065.507812 2179.695312 Z M 2065.507812 2479.1875" fill="none" stroke="#fff" stroke-linecap="round" stroke-linejoin="round" stroke-miterlimit="10" stroke-width="40" transform="matrix(.1 0 0 -.1 0 425.2)"/><g id="change1_8"><path d="M 239.570312 153.683594 C 238.464844 153.683594 237.570312 152.785156 237.570312 151.683594 L 237.570312 105.683594 C 237.570312 104.578125 238.464844 103.683594 239.570312 103.683594 L 246.070312 103.683594 C 247.175781 103.683594 248.070312 104.578125 248.070312 105.683594 L 248.070312 151.683594 C 248.070312 152.785156 247.175781 153.683594 246.070312 153.683594 L 239.570312 153.683594" fill="#231f20"/></g><g id="change2_2"><path d="M 246.070312 101.683594 L 239.570312 101.683594 C 237.359375 101.683594 235.570312 103.472656 235.570312 105.683594 L 235.570312 151.683594 C 235.570312 153.890625 237.359375 155.683594 239.570312 155.683594 L 246.070312 155.683594 C 248.277344 155.683594 250.070312 153.890625 250.070312 151.683594 L 250.070312 105.683594 C 250.070312 103.472656 248.277344 101.683594 246.070312 101.683594 Z M 246.070312 105.683594 L 246.070312 151.683594 L 239.570312 151.683594 L 239.570312 105.683594 L 246.070312 105.683594" fill="#fff"/></g><g id="change1_9"><path d="M 239.570312 124.683594 C 238.464844 124.683594 237.570312 123.785156 237.570312 122.683594 L 237.570312 99.683594 C 237.570312 98.578125 238.464844 97.683594 239.570312 97.683594 L 273.78125 97.683594 C 274.527344 97.683594 275.210938 98.097656 275.554688 98.757812 C 275.898438 99.421875 275.847656 100.21875 275.417969 100.828125 L 267.769531 111.746094 L 275.355469 121.449219 C 275.828125 122.054688 275.914062 122.871094 275.578125 123.558594 C 275.242188 124.246094 274.546875 124.683594 273.78125 124.683594 L 239.570312 124.683594" fill="#231f20"/></g><g id="change2_3"><path d="M 273.785156 95.683594 L 239.570312 95.683594 C 237.359375 95.683594 235.570312 97.472656 235.570312 99.683594 L 235.570312 122.683594 C 235.570312 124.890625 237.359375 126.683594 239.570312 126.683594 L 273.78125 126.683594 C 275.308594 126.683594 276.703125 125.808594 277.375 124.433594 C 278.046875 123.058594 277.875 121.421875 276.933594 120.21875 L 270.257812 111.679688 L 276.992188 102.070312 C 277.488281 101.402344 277.78125 100.578125 277.78125 99.683594 C 277.78125 97.472656 275.992188 95.683594 273.785156 95.683594 Z M 273.78125 99.683594 L 265.28125 111.808594 L 273.78125 122.683594 L 239.570312 122.683594 L 239.570312 99.683594 L 273.78125 99.683594 M 273.78125 99.683594 L 273.785156 99.683594" fill="#fff"/></g></g></svg>