<?xml version="1.0" encoding="UTF-8"?><svg xmlns="http://www.w3.org/2000/svg" xmlns:xlink="http://www.w3.org/1999/xlink" height="512.0" preserveAspectRatio="xMidYMid meet" version="1.0" viewBox="0.0 0.0 512.0 512.0" width="512.0" zoomAndPan="magnify"><g id="change1_1"><path d="M152.65,268.91c0,5.523-4.477,10-10,10H99.003c-5.523,0-10-4.477-10-10v-69.815c0-5.523,4.477-10,10-10h43.646 c5.523,0,10,4.477,10,10s-4.477,10-10,10h-33.646v14.907h20.417c5.523,0,10,4.477,10,10s-4.477,10-10,10h-20.417v14.908h33.646 C148.173,258.91,152.65,263.387,152.65,268.91z M178.84,222.009h-17.406c-5.523,0-10,4.477-10,10s4.477,10,10,10h17.406 c5.523,0,10-4.477,10-10S184.363,222.009,178.84,222.009z M450.869,228.058l22.417-19.953c4.125-3.672,4.493-9.993,0.821-14.118 c-3.671-4.126-9.994-4.493-14.118-0.821l-25.071,22.315v-16.386c0-5.523-4.477-10-10-10s-10,4.477-10,10v38.636 c0,0.028,0,0.056,0,0.084v31.095c0,5.523,4.477,10,10,10s10-4.477,10-10v-26.654l0.95-0.845l23.546,31.878 c3.282,4.442,9.543,5.382,13.985,2.103c4.442-3.282,5.384-9.543,2.102-13.985L450.869,228.058z M406.132,214.862v38.28 c0,14.208-11.559,25.768-25.768,25.768h-12.111c-14.208,0-25.767-11.559-25.767-25.768v-38.28c0-14.208,11.559-25.767,25.767-25.767 h12.111C394.573,189.095,406.132,200.654,406.132,214.862z M386.132,214.862c0-3.126-2.641-5.767-5.768-5.767h-12.111 c-3.126,0-5.767,2.641-5.767,5.767v38.28c0,3.126,2.641,5.768,5.767,5.768h12.111c3.126,0,5.768-2.641,5.768-5.768V214.862z M261.271,216.549c0,6.623-2.354,12.706-6.266,17.453c3.912,4.748,6.266,10.831,6.266,17.454c0,15.138-12.293,27.454-27.403,27.454 h-26.243c-5.523,0-10-4.477-10-10v-69.815c0-5.523,4.477-10,10-10h26.243C248.978,189.095,261.271,201.411,261.271,216.549z M241.271,251.456c0-4.11-3.321-7.454-7.403-7.454h-16.243v14.908h16.243C237.95,258.91,241.271,255.566,241.271,251.456z M241.271,216.549c0-4.11-3.321-7.454-7.403-7.454h-16.243v14.907h16.243C237.95,224.002,241.271,220.659,241.271,216.549z M333.702,214.862v38.28c0,14.208-11.559,25.768-25.767,25.768h-12.111c-14.208,0-25.768-11.559-25.768-25.768v-38.28 c0-14.208,11.559-25.767,25.768-25.767h12.111C322.143,189.095,333.702,200.654,333.702,214.862z M313.702,214.862 c0-3.126-2.641-5.767-5.767-5.767h-12.111c-3.126,0-5.768,2.641-5.768,5.767v38.28c0,3.126,2.641,5.768,5.768,5.768h12.111 c3.126,0,5.767-2.641,5.767-5.768V214.862z M512,180.263v107.479c0,16.267-13.233,29.5-29.5,29.5h-92.947V502 c0,5.523-4.477,10-10,10H45.672C20.488,512,0,489.311,0,461.422c0,0,0-408.523,0-410.845C0,22.689,22.689,0,50.577,0h282.562 c5.523,0,10,4.477,10,10v71.155l36.414,0c2.652,0,5.196,1.054,7.071,2.929c1.875,1.875,2.929,4.419,2.929,7.071v59.608H482.5 C498.767,150.762,512,163.996,512,180.263z M20,50.578c0,16.86,13.717,30.577,30.577,30.577h272.562V60.577H90.721 c-5.523,0-10-4.477-10-10s4.477-10,10-10h232.418V20H50.577C33.717,20,20,33.717,20,50.578z M369.553,317.242H83.96 c-16.266,0-29.5-13.233-29.5-29.5V180.263c0-16.267,13.234-29.5,29.5-29.5h285.593v-49.608H50.577 c-11.483,0-22.078-3.853-30.577-10.325v370.593C20,478.283,31.517,492,45.672,492h323.881V317.242z M492,180.263 c0-5.239-4.262-9.5-9.5-9.5H83.96c-5.238,0-9.5,4.262-9.5,9.5v107.479c0,5.238,4.262,9.5,9.5,9.5H482.5c5.238,0,9.5-4.262,9.5-9.5 V180.263z M119.162,378.841h166.5c5.523,0,10-4.477,10-10s-4.477-10-10-10h-166.5c-5.523,0-10,4.477-10,10 S113.639,378.841,119.162,378.841z M119.162,428.342h166.5c5.523,0,10-4.477,10-10s-4.477-10-10-10h-166.5c-5.523,0-10,4.477-10,10 S113.639,428.342,119.162,428.342z"/></g></svg>