<?xml version="1.0" encoding="UTF-8"?><svg xmlns="http://www.w3.org/2000/svg" xmlns:xlink="http://www.w3.org/1999/xlink" data-name="Layer 1" height="512.0" preserveAspectRatio="xMidYMid meet" version="1.0" viewBox="-0.0 0.0 512.0 512.0" width="512.0" zoomAndPan="magnify"><g id="change1_1"><path d="M8,176a7.9978,7.9978,0,0,0,8-8V40A24.02929,24.02929,0,0,1,40,16H328a24.0293,24.0293,0,0,1,24,24V168H272a40.02267,40.02267,0,0,0-36.608,24H64a8.008,8.008,0,0,1-8-8V56a8.008,8.008,0,0,1,8-8H304a8.00806,8.00806,0,0,1,8,8v80a8,8,0,0,0,16,0V56a24.0293,24.0293,0,0,0-24-24H64A24.02929,24.02929,0,0,0,40,56V184a24.0293,24.0293,0,0,0,24,24H232v24a8,8,0,0,0,16,0V208a24.0293,24.0293,0,0,1,24-24h88a7.99779,7.99779,0,0,0,8-8V40A40.0454,40.0454,0,0,0,328,0H40A40.0454,40.0454,0,0,0,0,40V168A7.9978,7.9978,0,0,0,8,176Z" fill="inherit"/></g><g id="change1_2"><path d="M224.72,106.32,168.24,72.4A16.023,16.023,0,0,0,144,86.16v67.68a15.8697,15.8697,0,0,0,8.08,13.92,16.19462,16.19462,0,0,0,16.16-.16l56.48-33.92a15.93815,15.93815,0,0,0,0-27.36ZM160,153.84V86.16L216.48,120Z" fill="inherit"/></g><g id="change1_3"><circle cx="208" cy="231.96" fill="inherit" r="8.04"/></g><g id="change1_4"><path d="M56,224a8,8,0,0,0,0,16h96a8,8,0,0,0,0-16Z" fill="inherit"/></g><g id="change1_5"><path d="M472,168H392a8,8,0,1,0,0,16h80a24.07055,24.07055,0,0,1,24,24V336a24.07054,24.07054,0,0,1-24,24H296v-8a40.01461,40.01461,0,0,0-40-40h-8V264a8.02353,8.02353,0,0,0-8-8H40a24.07055,24.07055,0,0,1-24-24,8,8,0,0,0-16,0,40.01459,40.01459,0,0,0,40,40H232v40H40A40.0146,40.0146,0,0,0,0,352V472a40.0146,40.0146,0,0,0,40,40H256a40.01461,40.01461,0,0,0,40-40V408a8,8,0,0,0-16,0v28.72l-26.32-26.4a8.21493,8.21493,0,0,0-11.36,0l-54.4,54.56-70.48-70.56a8.06368,8.06368,0,0,0-11.36,0L18.32,482.16A24.2444,24.2444,0,0,1,16,472V352a24.07055,24.07055,0,0,1,24-24H256a24.07054,24.07054,0,0,1,24,24v16a8.02353,8.02353,0,0,0,8,8H472a40.0146,40.0146,0,0,0,40-40V208a40.0146,40.0146,0,0,0-40-40ZM248,427.28l32,32V472a24.07054,24.07054,0,0,1-24,24H219.04L199.2,476.16Zm-136.24-16L196.48,496H40a23.71613,23.71613,0,0,1-10.4-2.48Z" fill="inherit"/></g><g id="change1_6"><path d="M422,214.72a23.65673,23.65673,0,0,0-21.6-3.28L326.72,236H304a24.07054,24.07054,0,0,0-24,24v8a24.08333,24.08333,0,0,0,18.88,23.44l3.44,27.6A24.07815,24.07815,0,0,0,326.16,340H336a8.02353,8.02353,0,0,0,8-8V297.76l56.4,18.8a24.457,24.457,0,0,0,21.6-3.28,23.60636,23.60636,0,0,0,10-19.44V234.16A23.60638,23.60638,0,0,0,422,214.72ZM304,276a8.02353,8.02353,0,0,1-8-8v-8a8.02353,8.02353,0,0,1,8-8h16v24Zm24,48c-4.64,0-9.12-1.76-9.84-6.96L315.04,292h11.68l1.28.4Zm88-30.16a7.86057,7.86057,0,0,1-3.36,6.48,7.70787,7.70787,0,0,1-7.2,1.04L336,278.24V249.76l69.44-23.12a7.70788,7.70788,0,0,1,7.2,1.04,7.86045,7.86045,0,0,1,3.36,6.48Z" fill="inherit"/></g><g id="change1_7"><path d="M464,280V248a8,8,0,1,0-16,0v32a8,8,0,0,0,16,0Z" fill="inherit"/></g><g id="change1_8"><path d="M200,344a24,24,0,1,0,24,24A24.07055,24.07055,0,0,0,200,344Zm0,32a8,8,0,1,1,8-8A8.02353,8.02353,0,0,1,200,376Z" fill="inherit"/></g><g id="change1_9"><circle cx="8.04" cy="200.04" fill="inherit" r="8.04"/></g></svg>